# xmcd
#
# Track frame offsets:
#	150
#	12686
#	25050
#	36707
#	48283
#	62896
#	72274
#	84920
#	94598
#	106359
#	115714
#	127136
#	140200
#	151888
#	164017
#	176626
#	188440
#	199748
#	212128
#	224022
#	235430
#	245708
#	258088
#	270080
#
# Disc length: 3711 seconds
#
# Revision: 1
# Processed by: cddbd v1.5.2PL0 Copyright (c) Steve Scherf et al.
# Submitted via: audiograbber 1.82.02
#
DISCID=650e7d18
DTITLE=Bobby Bare - This is Bobby Bare
DYEAR=1973
DGENRE=
TTITLE0=Detroit city
TTITLE1=Bless America again
TTITLE2=Huston
TTITLE3=The streets of Baltimore
TTITLE4=The Lincoln Park inn
TTITLE5=Vincennes
TTITLE6=Miller´s gave
TTITLE7=Have I stayed away too long
TTITLE8=The long black veil
TTITLE9=Charleston railroad Tavers
TTITLE10=Come on home and sing the blues to daddy
TTITLE11=All American boy
TTITLE12=Chicken every sunday
TTITLE13=Four strong winds
TTITLE14=Long black Limousine
TTITLE15=The game of the triangles
TTITLE16=Times are gettin´ hard
TTITLE17=Folsom prison blues
TTITLE18=500 miles away from you
TTITLE19=I´d fight the world
TTITLE20=When the wind blows
TTITLE21=Green, green grass of home
TTITLE22=Delia´s gone
TTITLE23=Dear John letter
EXTD=
EXTT0=
EXTT1=
EXTT2=
EXTT3=
EXTT4=
EXTT5=
EXTT6=
EXTT7=
EXTT8=
EXTT9=
EXTT10=
EXTT11=
EXTT12=
EXTT13=
EXTT14=
EXTT15=
EXTT16=
EXTT17=
EXTT18=
EXTT19=
EXTT20=
EXTT21=
EXTT22=
EXTT23=
PLAYORDER=
